<?xml version="1.0" standalone="no"?>
<!DOCTYPE svg PUBLIC "-//W3C//DTD SVG 20010904//EN"
 "http://www.w3.org/TR/2001/REC-SVG-20010904/DTD/svg10.dtd">
<svg version="1.0" xmlns="http://www.w3.org/2000/svg"
 width="500.000000pt" height="500.000000pt" viewBox="0 0 500.000000 500.000000"
 preserveAspectRatio="xMidYMid meet">

<g transform="translate(0.000000,500.000000) scale(0.100000,-0.100000)"
fill="#000000" stroke="none">
<path d="M1580 3176 c-106 -30 -182 -93 -215 -179 -13 -35 -16 -65 -13 -121
11 -170 107 -239 398 -285 156 -25 226 -46 256 -76 67 -67 28 -161 -84 -200
-26 -9 -90 -19 -142 -22 -119 -6 -203 12 -309 67 -42 22 -79 40 -83 40 -3 0
-18 -30 -34 -66 l-28 -67 29 -23 c44 -35 146 -73 230 -86 181 -28 368 50 434
183 59 119 34 265 -58 339 -79 62 -163 85 -356 100 -192 15 -245 40 -245 119
0 44 50 96 118 122 115 44 326 36 457 -16 32 -14 61 -23 63 -21 2 3 12 36 22
75 l18 71 -30 16 c-79 41 -326 58 -428 30z"/>
<path d="M2150 2670 l0 -510 75 0 75 0 0 510 0 510 -75 0 -75 0 0 -510z"/>
<path d="M2440 2670 l0 -510 385 0 385 0 0 264 c0 286 -2 276 55 276 25 0 97
-101 291 -412 l79 -128 87 0 87 0 -136 213 c-209 326 -250 384 -283 395 -16 6
-38 8 -49 5 -12 -3 -21 -3 -21 0 0 3 104 95 231 206 l230 201 -112 0 c-88 0
-110 -3 -101 -12 47 -47 -41 -180 -253 -378 l-100 -94 -3 242 -2 242 -75 0
-75 0 0 -429 0 -429 -47 -30 c-92 -57 -224 -98 -375 -116 l-48 -6 0 505 0 505
-75 0 -75 0 0 -510z"/>
</g>
</svg>
